# xmcd
#
# Track frame offsets:
#	150
#	5137
#	10182
#	12935
#	15622
#	20592
#	25535
#	30550
#	35512
#	38287
#	41047
#	45805
#	50572
#	53202
#	55850
#	60847
#	65845
#	68595
#	71352
#	76390
#	81357
#	84175
#	86917
#	91937
#	96810
#	99595
#	102290
#	107240
#	112190
#	114892
#	117637
#	122575
#	125315
#	130260
#	135190
#	137880
#	140617
#	145560
#	150472
#	153180
#	155837
#	160857
#	165892
#	168725
#	171452
#	176437
#	181415
#	184150
#	186880
#	191905
#	196862
#	199657
#	202430
#	207440
#	212482
#	215285
#	218022
#	222947
#	227805
#	230530
#	233207
#	238167
#	243145
#	248125
#	253032
#	255745
#
# Disc length: 3442 seconds
#
# Revision: 1
# Processed by: cddbd v1.5.1PL0 Copyright (c) Steve Scherf et al.
# Submitted via: audiograbber 1.82.00
#
DISCID=960d7042
DTITLE=TM Century - MegaMusic - 505 - Country
DYEAR=1900
DGENRE=
TTITLE0=8374-Count On Us - Full Mix
TTITLE1=8374-Count On Us - Rhythm Mix
TTITLE2=8374-Count On Us - Full Mix-Edit
TTITLE3=8374-Count On Us - Rhythm Mix-Edit
TTITLE4=8375-Road West - Full Mix
TTITLE5=8375-Road West - Rhythm Mix
TTITLE6=8376-Roaming - Full Mix
TTITLE7=8376-Roaming - Rhythm Mix
TTITLE8=8376-Roaming - Full Mix-Edit
TTITLE9=8376-Roaming - Rhythm Mix-Edit
TTITLE10=8377-Seriously Smooth - Full Mix
TTITLE11=8377-Seriously Smooth - Rhythm Mix
TTITLE12=8377-Seriously Smooth - Full Mix-Edit
TTITLE13=8377-Seriously Smooth - Rhythm Mix-Edit
TTITLE14=8378-Boardwalk Brunch - Full Mix
TTITLE15=8378-Boardwalk Brunch - Rhythm Mix
TTITLE16=8378-Boardwalk Brunch - Full Mix-Edit
TTITLE17=8378-Boardwalk Brunch - Rhythm Mix-Edit
TTITLE18=8379-Time Off - Full Mix
TTITLE19=8379-Time Off - Rhythm Mix
TTITLE20=8379-Time Off - Full Mix-Edit
TTITLE21=8379-Time Off - Rhythm Mix-Edit
TTITLE22=8380-Waiting For The Weekend - Full Mix
TTITLE23=8380-Waiting For The Weekend - Rhythm Mix
TTITLE24=8380-Waiting For The Weekend - Full Mix-Edit
TTITLE25=8380-Waiting For The Weekend - Rhythm Mix-Edit
TTITLE26=8381-Blue Ribbon - Full Mix
TTITLE27=8381-Blue Ribbon - Rhythm Mix
TTITLE28=8381-Blue Ribbon - Full Mix-Edit
TTITLE29=8381-Blue Ribbon - Rhythm Mix-Edit
TTITLE30=8382-Train Ticket - Full Mix
TTITLE31=8382-Train Ticket - Full Mix-Edit
TTITLE32=8383-Morning Dew - Full Mix
TTITLE33=8383-Morning Dew - Rhythm Mix
TTITLE34=8383-Morning Dew - Full Mix-Edit
TTITLE35=8383-Morning Dew - Rhythm Mix-Edit
TTITLE36=8384-Morning Coffee - Full Mix
TTITLE37=8384-Morning Coffee - Rhythm Mix
TTITLE38=8384-Morning Coffee - Full Mix-Edit
TTITLE39=8384-Morning Coffee - Rhythm Mix-Edit
TTITLE40=8385-All Set To Go - Full Mix
TTITLE41=8385-All Set To Go - Rhythm Mix
TTITLE42=8385-All Set To Go - Full Mix-Edit
TTITLE43=8385-All Set To Go - Rhythm Mix-Edit
TTITLE44=8386-Heavy Eyes - Full Mix
TTITLE45=8386-Heavy Eyes - Rhythm Mix
TTITLE46=8386-Heavy Eyes - Full Mix-Edit
TTITLE47=8386-Heavy Eyes - Rhythm Mix-Edit
TTITLE48=8387-Scenic Highway - Full Mix
TTITLE49=8387-Scenic Highway - Rhythm Mix
TTITLE50=8387-Scenic Highway - Full Mix-Edit
TTITLE51=8387-Scenic Highway - Rhythm Mix-Edit
TTITLE52=8388-Clod Hopper - Full Mix
TTITLE53=8388-Clod Hopper - Rhythm Mix
TTITLE54=8388-Clod Hopper - Full Mix-Edit
TTITLE55=8388-Clod Hopper - Rhythm Mix-Edit
TTITLE56=8389-Questions - Full Mix
TTITLE57=8389-Questions - Rhythm Mix
TTITLE58=8389-Questions - Full Mix-Edit
TTITLE59=8389-Questions - Rhythm Mix-Edit
TTITLE60=8390-Waltz Away - Full Mix
TTITLE61=8390-Waltz Away - Rhythm Mix
TTITLE62=8391-Kentucky Kitchen - Full Mix
TTITLE63=8391-Kentucky Kitchen - Rhythm Mix
TTITLE64=8391-Kentucky Kitchen - Full Mix-Edit
TTITLE65=8391-Kentucky Kitchen - Rhythm Mix-Edit
EXTD=
EXTT0=
EXTT1=
EXTT2=
EXTT3=
EXTT4=
EXTT5=
EXTT6=
EXTT7=
EXTT8=
EXTT9=
EXTT10=
EXTT11=
EXTT12=
EXTT13=
EXTT14=
EXTT15=
EXTT16=
EXTT17=
EXTT18=
EXTT19=
EXTT20=
EXTT21=
EXTT22=
EXTT23=
EXTT24=
EXTT25=
EXTT26=
EXTT27=
EXTT28=
EXTT29=
EXTT30=
EXTT31=
EXTT32=
EXTT33=
EXTT34=
EXTT35=
EXTT36=
EXTT37=
EXTT38=
EXTT39=
EXTT40=
EXTT41=
EXTT42=
EXTT43=
EXTT44=
EXTT45=
EXTT46=
EXTT47=
EXTT48=
EXTT49=
EXTT50=
EXTT51=
EXTT52=
EXTT53=
EXTT54=
EXTT55=
EXTT56=
EXTT57=
EXTT58=
EXTT59=
EXTT60=
EXTT61=
EXTT62=
EXTT63=
EXTT64=
EXTT65=
PLAYORDER=
